<mxfile host="app.diagrams.net" agent="Mozilla/5.0 (Windows NT 10.0; Win64; x64) AppleWebKit/537.36 (KHTML, like Gecko) Chrome/136.0.0.0 Safari/537.36 Edg/136.0.0.0" version="27.0.1">
  <diagram name="Page-1" id="C9OCIDsLv69voQpAmpvU">
    <mxGraphModel dx="1281" dy="616" grid="1" gridSize="10" guides="1" tooltips="1" connect="1" arrows="1" fold="1" page="1" pageScale="1" pageWidth="850" pageHeight="1100" math="0" shadow="0">
      <root>
        <mxCell id="0" />
        <mxCell id="1" parent="0" />
        <mxCell id="gUIPkTZaUuzdHFNblbpF-1" value="" style="rounded=1;whiteSpace=wrap;html=1;" vertex="1" parent="1">
          <mxGeometry x="230" y="190" width="120" height="60" as="geometry" />
        </mxCell>
        <mxCell id="gUIPkTZaUuzdHFNblbpF-2" value="" style="whiteSpace=wrap;html=1;aspect=fixed;" vertex="1" parent="1">
          <mxGeometry x="230" y="140" width="30" height="30" as="geometry" />
        </mxCell>
        <mxCell id="gUIPkTZaUuzdHFNblbpF-3" value="" style="whiteSpace=wrap;html=1;aspect=fixed;" vertex="1" parent="1">
          <mxGeometry x="275" y="140" width="30" height="30" as="geometry" />
        </mxCell>
        <mxCell id="gUIPkTZaUuzdHFNblbpF-4" value="" style="whiteSpace=wrap;html=1;aspect=fixed;" vertex="1" parent="1">
          <mxGeometry x="320" y="140" width="30" height="30" as="geometry" />
        </mxCell>
        <mxCell id="gUIPkTZaUuzdHFNblbpF-5" value="" style="whiteSpace=wrap;html=1;aspect=fixed;" vertex="1" parent="1">
          <mxGeometry x="230" y="270" width="30" height="30" as="geometry" />
        </mxCell>
        <mxCell id="gUIPkTZaUuzdHFNblbpF-6" value="" style="whiteSpace=wrap;html=1;aspect=fixed;" vertex="1" parent="1">
          <mxGeometry x="275" y="270" width="30" height="30" as="geometry" />
        </mxCell>
        <mxCell id="gUIPkTZaUuzdHFNblbpF-7" value="" style="whiteSpace=wrap;html=1;aspect=fixed;" vertex="1" parent="1">
          <mxGeometry x="320" y="270" width="30" height="30" as="geometry" />
        </mxCell>
        <mxCell id="gUIPkTZaUuzdHFNblbpF-8" value="" style="whiteSpace=wrap;html=1;aspect=fixed;" vertex="1" parent="1">
          <mxGeometry x="360" y="190" width="30" height="30" as="geometry" />
        </mxCell>
        <mxCell id="gUIPkTZaUuzdHFNblbpF-9" value="" style="whiteSpace=wrap;html=1;aspect=fixed;" vertex="1" parent="1">
          <mxGeometry x="360" y="230" width="30" height="30" as="geometry" />
        </mxCell>
        <mxCell id="gUIPkTZaUuzdHFNblbpF-10" value="" style="whiteSpace=wrap;html=1;aspect=fixed;" vertex="1" parent="1">
          <mxGeometry x="190" y="190" width="30" height="30" as="geometry" />
        </mxCell>
        <mxCell id="gUIPkTZaUuzdHFNblbpF-11" value="" style="whiteSpace=wrap;html=1;aspect=fixed;" vertex="1" parent="1">
          <mxGeometry x="190" y="230" width="30" height="30" as="geometry" />
        </mxCell>
        <mxCell id="gUIPkTZaUuzdHFNblbpF-12" value="" style="rounded=1;whiteSpace=wrap;html=1;" vertex="1" parent="1">
          <mxGeometry x="230" y="520" width="120" height="60" as="geometry" />
        </mxCell>
        <mxCell id="gUIPkTZaUuzdHFNblbpF-13" value="" style="whiteSpace=wrap;html=1;aspect=fixed;" vertex="1" parent="1">
          <mxGeometry x="230" y="470" width="30" height="30" as="geometry" />
        </mxCell>
        <mxCell id="gUIPkTZaUuzdHFNblbpF-14" value="" style="whiteSpace=wrap;html=1;aspect=fixed;" vertex="1" parent="1">
          <mxGeometry x="275" y="470" width="30" height="30" as="geometry" />
        </mxCell>
        <mxCell id="gUIPkTZaUuzdHFNblbpF-15" value="" style="whiteSpace=wrap;html=1;aspect=fixed;" vertex="1" parent="1">
          <mxGeometry x="320" y="470" width="30" height="30" as="geometry" />
        </mxCell>
        <mxCell id="gUIPkTZaUuzdHFNblbpF-16" value="" style="whiteSpace=wrap;html=1;aspect=fixed;" vertex="1" parent="1">
          <mxGeometry x="230" y="600" width="30" height="30" as="geometry" />
        </mxCell>
        <mxCell id="gUIPkTZaUuzdHFNblbpF-17" value="" style="whiteSpace=wrap;html=1;aspect=fixed;" vertex="1" parent="1">
          <mxGeometry x="275" y="600" width="30" height="30" as="geometry" />
        </mxCell>
        <mxCell id="gUIPkTZaUuzdHFNblbpF-18" value="" style="whiteSpace=wrap;html=1;aspect=fixed;" vertex="1" parent="1">
          <mxGeometry x="320" y="600" width="30" height="30" as="geometry" />
        </mxCell>
        <mxCell id="gUIPkTZaUuzdHFNblbpF-19" value="" style="whiteSpace=wrap;html=1;aspect=fixed;" vertex="1" parent="1">
          <mxGeometry x="360" y="520" width="30" height="30" as="geometry" />
        </mxCell>
        <mxCell id="gUIPkTZaUuzdHFNblbpF-20" value="" style="whiteSpace=wrap;html=1;aspect=fixed;" vertex="1" parent="1">
          <mxGeometry x="360" y="560" width="30" height="30" as="geometry" />
        </mxCell>
        <mxCell id="gUIPkTZaUuzdHFNblbpF-21" value="" style="whiteSpace=wrap;html=1;aspect=fixed;" vertex="1" parent="1">
          <mxGeometry x="190" y="520" width="30" height="30" as="geometry" />
        </mxCell>
        <mxCell id="gUIPkTZaUuzdHFNblbpF-22" value="" style="whiteSpace=wrap;html=1;aspect=fixed;" vertex="1" parent="1">
          <mxGeometry x="190" y="560" width="30" height="30" as="geometry" />
        </mxCell>
        <mxCell id="gUIPkTZaUuzdHFNblbpF-23" value="" style="rounded=1;whiteSpace=wrap;html=1;" vertex="1" parent="1">
          <mxGeometry x="260" y="370" width="80" height="40" as="geometry" />
        </mxCell>
        <mxCell id="gUIPkTZaUuzdHFNblbpF-24" value="" style="whiteSpace=wrap;html=1;aspect=fixed;" vertex="1" parent="1">
          <mxGeometry x="360" y="375" width="30" height="30" as="geometry" />
        </mxCell>
        <mxCell id="gUIPkTZaUuzdHFNblbpF-25" value="" style="whiteSpace=wrap;html=1;aspect=fixed;" vertex="1" parent="1">
          <mxGeometry x="210" y="375" width="30" height="30" as="geometry" />
        </mxCell>
        <mxCell id="gUIPkTZaUuzdHFNblbpF-26" value="" style="rounded=1;whiteSpace=wrap;html=1;" vertex="1" parent="1">
          <mxGeometry x="550" y="135" width="80" height="40" as="geometry" />
        </mxCell>
        <mxCell id="gUIPkTZaUuzdHFNblbpF-27" value="" style="whiteSpace=wrap;html=1;aspect=fixed;" vertex="1" parent="1">
          <mxGeometry x="650" y="140" width="30" height="30" as="geometry" />
        </mxCell>
        <mxCell id="gUIPkTZaUuzdHFNblbpF-28" value="" style="whiteSpace=wrap;html=1;aspect=fixed;" vertex="1" parent="1">
          <mxGeometry x="500" y="140" width="30" height="30" as="geometry" />
        </mxCell>
        <mxCell id="gUIPkTZaUuzdHFNblbpF-29" value="" style="rounded=1;whiteSpace=wrap;html=1;" vertex="1" parent="1">
          <mxGeometry x="550" y="325" width="80" height="40" as="geometry" />
        </mxCell>
        <mxCell id="gUIPkTZaUuzdHFNblbpF-30" value="" style="whiteSpace=wrap;html=1;aspect=fixed;" vertex="1" parent="1">
          <mxGeometry x="650" y="330" width="30" height="30" as="geometry" />
        </mxCell>
        <mxCell id="gUIPkTZaUuzdHFNblbpF-31" value="" style="whiteSpace=wrap;html=1;aspect=fixed;" vertex="1" parent="1">
          <mxGeometry x="500" y="330" width="30" height="30" as="geometry" />
        </mxCell>
        <mxCell id="gUIPkTZaUuzdHFNblbpF-32" value="" style="rounded=1;whiteSpace=wrap;html=1;" vertex="1" parent="1">
          <mxGeometry x="550" y="365" width="80" height="40" as="geometry" />
        </mxCell>
        <mxCell id="gUIPkTZaUuzdHFNblbpF-33" value="" style="whiteSpace=wrap;html=1;aspect=fixed;" vertex="1" parent="1">
          <mxGeometry x="650" y="370" width="30" height="30" as="geometry" />
        </mxCell>
        <mxCell id="gUIPkTZaUuzdHFNblbpF-34" value="" style="whiteSpace=wrap;html=1;aspect=fixed;" vertex="1" parent="1">
          <mxGeometry x="500" y="370" width="30" height="30" as="geometry" />
        </mxCell>
        <mxCell id="gUIPkTZaUuzdHFNblbpF-35" value="" style="rounded=1;whiteSpace=wrap;html=1;" vertex="1" parent="1">
          <mxGeometry x="550" y="440" width="80" height="40" as="geometry" />
        </mxCell>
        <mxCell id="gUIPkTZaUuzdHFNblbpF-36" value="" style="whiteSpace=wrap;html=1;aspect=fixed;" vertex="1" parent="1">
          <mxGeometry x="650" y="445" width="30" height="30" as="geometry" />
        </mxCell>
        <mxCell id="gUIPkTZaUuzdHFNblbpF-37" value="" style="whiteSpace=wrap;html=1;aspect=fixed;" vertex="1" parent="1">
          <mxGeometry x="500" y="445" width="30" height="30" as="geometry" />
        </mxCell>
        <mxCell id="gUIPkTZaUuzdHFNblbpF-38" value="" style="rounded=1;whiteSpace=wrap;html=1;" vertex="1" parent="1">
          <mxGeometry x="550" y="480" width="80" height="40" as="geometry" />
        </mxCell>
        <mxCell id="gUIPkTZaUuzdHFNblbpF-39" value="" style="whiteSpace=wrap;html=1;aspect=fixed;" vertex="1" parent="1">
          <mxGeometry x="650" y="485" width="30" height="30" as="geometry" />
        </mxCell>
        <mxCell id="gUIPkTZaUuzdHFNblbpF-40" value="" style="whiteSpace=wrap;html=1;aspect=fixed;" vertex="1" parent="1">
          <mxGeometry x="500" y="485" width="30" height="30" as="geometry" />
        </mxCell>
        <mxCell id="gUIPkTZaUuzdHFNblbpF-41" value="" style="rounded=1;whiteSpace=wrap;html=1;" vertex="1" parent="1">
          <mxGeometry x="550" y="590" width="80" height="40" as="geometry" />
        </mxCell>
        <mxCell id="gUIPkTZaUuzdHFNblbpF-42" value="" style="whiteSpace=wrap;html=1;aspect=fixed;" vertex="1" parent="1">
          <mxGeometry x="650" y="595" width="30" height="30" as="geometry" />
        </mxCell>
        <mxCell id="gUIPkTZaUuzdHFNblbpF-43" value="" style="whiteSpace=wrap;html=1;aspect=fixed;" vertex="1" parent="1">
          <mxGeometry x="500" y="595" width="30" height="30" as="geometry" />
        </mxCell>
        <mxCell id="gUIPkTZaUuzdHFNblbpF-44" value="" style="rounded=1;whiteSpace=wrap;html=1;" vertex="1" parent="1">
          <mxGeometry x="550" y="205" width="80" height="40" as="geometry" />
        </mxCell>
        <mxCell id="gUIPkTZaUuzdHFNblbpF-45" value="" style="whiteSpace=wrap;html=1;aspect=fixed;" vertex="1" parent="1">
          <mxGeometry x="650" y="210" width="30" height="30" as="geometry" />
        </mxCell>
        <mxCell id="gUIPkTZaUuzdHFNblbpF-46" value="" style="whiteSpace=wrap;html=1;aspect=fixed;" vertex="1" parent="1">
          <mxGeometry x="500" y="210" width="30" height="30" as="geometry" />
        </mxCell>
        <mxCell id="gUIPkTZaUuzdHFNblbpF-47" value="" style="rounded=1;whiteSpace=wrap;html=1;" vertex="1" parent="1">
          <mxGeometry x="550" y="245" width="80" height="40" as="geometry" />
        </mxCell>
        <mxCell id="gUIPkTZaUuzdHFNblbpF-48" value="" style="whiteSpace=wrap;html=1;aspect=fixed;" vertex="1" parent="1">
          <mxGeometry x="650" y="250" width="30" height="30" as="geometry" />
        </mxCell>
        <mxCell id="gUIPkTZaUuzdHFNblbpF-49" value="" style="whiteSpace=wrap;html=1;aspect=fixed;" vertex="1" parent="1">
          <mxGeometry x="500" y="250" width="30" height="30" as="geometry" />
        </mxCell>
      </root>
    </mxGraphModel>
  </diagram>
</mxfile>
